<?xml version="1.0" encoding="UTF-8" standalone="no"?>
<!-- Created with Inkscape (http://www.inkscape.org/) -->

<svg
   width="493"
   height="312"
   viewBox="0 0 130.43958 82.55"
   version="1.1"
   id="svg1"
   inkscape:version="1.3.2 (091e20e, 2023-11-25, custom)"
   sodipodi:docname="dialog_welcome.svg"
   xmlns:inkscape="http://www.inkscape.org/namespaces/inkscape"
   xmlns:sodipodi="http://sodipodi.sourceforge.net/DTD/sodipodi-0.dtd"
   xmlns="http://www.w3.org/2000/svg"
   xmlns:svg="http://www.w3.org/2000/svg">
  <sodipodi:namedview
     id="namedview1"
     pagecolor="#ffffff"
     bordercolor="#000000"
     borderopacity="0.25"
     inkscape:showpageshadow="2"
     inkscape:pageopacity="0.0"
     inkscape:pagecheckerboard="true"
     inkscape:deskcolor="#d1d1d1"
     inkscape:document-units="px"
     inkscape:zoom="1.4485269"
     inkscape:cx="168.44699"
     inkscape:cy="231.61461"
     inkscape:window-width="1920"
     inkscape:window-height="1009"
     inkscape:window-x="1912"
     inkscape:window-y="-8"
     inkscape:window-maximized="1"
     inkscape:current-layer="layer1"
     labelstyle="default" />
  <defs
     id="defs1" />
  <g
     inkscape:label="Layer 1"
     inkscape:groupmode="layer"
     id="layer1">
    <rect
       style="fill:#080c80;fill-opacity:1;stroke-width:0.153784"
       id="rect1"
       width="44.291267"
       height="82.549995"
       x="8.6597396e-15"
       y="3.7747583e-15" />
    <g
       id="g2"
       transform="matrix(0.06072311,0,0,0.06072311,-13.287829,7.7866996)">
      <g
         id="g848"
         transform="matrix(0.98306908,0,0,0.98306908,23.308742,13.061233)">
        <path
           id="path831"
           d="m 299.86349,788.92678 c -40.69039,-30.3065 -57.96231,-72.024 -53.59233,-129.44378 2.13338,-28.03125 7.68471,-52.91575 19.16915,-85.92722 13.08152,-37.60249 28.24195,-70.07109 56.6652,-121.35792 27.9496,-50.43212 29.70343,-73.81315 30.48115,-97.75533 0.26796,-42.59356 -44.85265,-111.94265 33.11629,-78.09465 8.84709,4.48319 18.8089,12.23283 24.60418,19.14064 18.73727,22.33398 18.09293,58.571 -1.94589,109.42807 -3.59573,9.1258 -18.36003,40.39259 -32.80957,69.48176 -32.076,64.57404 -47.84144,97.69687 -55.42311,116.44261 -6.45596,15.96234 -15.11802,45.0471 -18.10419,60.78875 -7.06716,37.25542 -5.8089,88.61132 3.19026,130.21044 1.38654,6.40912 2.35372,11.82013 2.14927,12.02455 -0.20437,0.20441 -3.57957,-2.01764 -7.50041,-4.93792 z"
           style="fill:#ffffff;fill-opacity:1;fill-rule:evenodd;stroke:#15aae4;stroke-width:0;stroke-miterlimit:4;stroke-dasharray:none"
           sodipodi:nodetypes="sssscccsssssss" />
        <path
           id="path833"
           d="m 390.37054,250.38027 c -22.37521,-6.0259 -40.83221,-24.62063 -46.66463,-47.01276 -4.12675,-15.84368 -1.49076,-36.03175 6.49337,-49.73077 2.04159,-3.50303 7.1003,-9.69827 11.24158,-13.76722 25.03789,-24.60095 64.2869,-25.30436 89.87879,-1.61077 12.96295,12.00141 18.63104,22.89648 21.08454,40.52849 4.33048,31.12005 -16.31155,62.51329 -47.03006,71.52529 -8.68793,2.5488 -25.66896,2.58166 -35.00359,0.0677 z"
           style="fill:#ffffff;fill-opacity:1;fill-rule:evenodd;stroke:#15aae4;stroke-width:0;stroke-miterlimit:4;stroke-dasharray:none" />
        <path
           id="path835"
           d="m 829.19472,972.59326 c 1.77158,-6.06273 4.89021,-30.1134 6.26413,-48.30853 5.84867,-77.45862 -16.42422,-175.76593 -59.14503,-261.05158 -16.29284,-32.52623 -31.8344,-56.32854 -46.08257,-70.57668 -9.68916,-9.68917 -14.3454,-9.59913 -19.4979,0.37704 -2.89746,5.61006 -9.1594,27.15288 -19.03841,65.49832 -21.63255,83.96591 -35.0716,119.55787 -57.79163,153.05531 -13.22905,19.50428 -36.18132,39.89192 -41.32864,36.71058 -5.39926,-3.337 -17.9217,-22.09703 -26.85985,-40.23905 -15.79205,-32.05368 -25.03126,-60.00474 -44.36556,-134.2172 -16.85528,-64.6975 -19.0947,-71.50818 -25.38198,-77.19418 -5.84013,-5.28171 -8.37897,0.91512 -21.87622,53.39612 -19.94132,77.5375 -33.76114,109.68712 -57.303,133.30696 -15.42316,15.47424 -78.77801,82.14835 -99.60338,61.69964 -15.79652,-122.58461 53.49105,-37.62177 98.06967,-119.99358 10.70138,-28.65161 16.97459,-55.98839 29.60452,-129.0082 4.39132,-25.38785 9.68708,-52.90283 11.76852,-61.14442 4.38732,-17.37171 10.68304,-29.9702 16.74634,-33.51136 3.85901,-2.25379 4.50117,-2.27418 10.35801,-0.32885 13.06082,4.3381 29.26878,18.38921 40.27294,34.91358 8.29554,12.45699 19.02861,35.56496 25.94233,55.8533 9.51939,27.9348 14.93282,49.23978 29.52154,116.18621 14.49212,66.50293 21.24642,81.16544 30.83462,66.9375 5.67127,-8.4156 12.32252,-30.20498 31.75097,-104.0162 17.07327,-64.86328 27.70338,-97.28966 41.16558,-125.57255 9.43714,-19.82657 14.05406,-27.10288 23.34421,-36.79055 9.1289,-9.51942 15.16451,-12.53397 24.9569,-12.46489 10.43918,0.0736 17.1459,3.64732 28.91887,15.40941 37.06262,37.02831 82.18445,150.10133 99.01441,248.12525 6.32223,36.82301 7.79057,54.13144 7.76306,91.50905 -0.02,26.42797 -0.56317,38.53062 -2.17087,48.31875 -2.84871,17.34323 -7.88672,34.28084 -13.56471,45.60383 -4.22644,8.42846 -15.79913,24.10323 -20.95389,28.38133 -1.82024,1.51063 -1.99402,1.39787 -1.33298,-0.86436 z"
           style="fill:#ffffff;fill-opacity:1;fill-rule:evenodd;stroke:#15aae4;stroke-width:0;stroke-miterlimit:4;stroke-dasharray:none"
           sodipodi:nodetypes="scssscsssssssccsssssssssssssscssss" />
      </g>
      <path
         id="path836"
         style="fill:#080c80;fill-opacity:1;fill-rule:evenodd;stroke:#15aae4;stroke-width:0"
         d="m 365.48874,810.84386 c -6.0642,0.7898 -11.67045,-3.84474 -13.02059,-10.76379 -1.35014,-6.91905 1.98704,-13.91279 7.75065,-16.24306 5.76361,-2.33026 13.93341,2.91821 15.2589,9.7109 2.49034,8.69762 -2.38016,16.05135 -9.98896,17.29595 z"
         sodipodi:nodetypes="csscc" />
      <path
         style="fill:#080c80;fill-opacity:1;stroke:#080c80;stroke-width:37.5;stroke-linecap:butt;stroke-linejoin:miter;stroke-miterlimit:4;stroke-dasharray:none;stroke-opacity:1"
         d="M 830.70019,828.07208 900.30603,799.8983"
         id="path839"
         sodipodi:nodetypes="cc" />
      <path
         sodipodi:nodetypes="cc"
         id="path839-9"
         d="m 809.32209,753.80315 69.60584,-28.17378"
         style="fill:#080c80;fill-opacity:1;stroke:#080c80;stroke-width:37.5;stroke-linecap:butt;stroke-linejoin:miter;stroke-miterlimit:4;stroke-dasharray:none;stroke-opacity:1" />
      <path
         sodipodi:nodetypes="cc"
         id="path839-90"
         d="M 786.00236,685.61905 855.6082,657.44527"
         style="fill:#080c80;fill-opacity:1;stroke:#080c80;stroke-width:37.5;stroke-linecap:butt;stroke-linejoin:miter;stroke-miterlimit:4;stroke-dasharray:none;stroke-opacity:1" />
      <path
         sodipodi:nodetypes="csscc"
         d="m 416.4861,338.56766 c -6.0642,0.7898 -11.67045,-3.84474 -13.02059,-10.76379 -1.35014,-6.91905 1.98704,-13.91279 7.75065,-16.24306 5.76361,-2.33026 13.93341,2.91821 15.2589,9.7109 2.49034,8.69762 -2.38016,16.05135 -9.98896,17.29595 z"
         style="fill:#080c80;fill-opacity:1;fill-rule:evenodd;stroke:#15aae4;stroke-width:0"
         id="path836-9" />
      <path
         style="fill:#080c80;fill-opacity:1;stroke:#080c80;stroke-width:37.5;stroke-linecap:butt;stroke-linejoin:miter;stroke-miterlimit:4;stroke-dasharray:none;stroke-opacity:1"
         d="m 265.19709,632.83691 60.23084,14.01372"
         id="path839-90-9"
         sodipodi:nodetypes="cc" />
      <path
         sodipodi:nodetypes="cc"
         id="path839-90-9-3"
         d="m 285.85667,553.06092 68.51724,18.98556"
         style="fill:#080c80;fill-opacity:1;stroke:#080c80;stroke-width:37.5;stroke-linecap:butt;stroke-linejoin:miter;stroke-miterlimit:4;stroke-dasharray:none;stroke-opacity:1" />
    </g>
  </g>
</svg>
