<?xml version="1.0" encoding="UTF-8" standalone="no"?>
<!-- Created with Inkscape (http://www.inkscape.org/) -->

<svg
   width="493"
   height="58"
   viewBox="0 0 130.43959 15.345834"
   version="1.1"
   id="svg1"
   inkscape:version="1.3.2 (091e20e, 2023-11-25, custom)"
   sodipodi:docname="top_banner.svg"
   xmlns:inkscape="http://www.inkscape.org/namespaces/inkscape"
   xmlns:sodipodi="http://sodipodi.sourceforge.net/DTD/sodipodi-0.dtd"
   xmlns="http://www.w3.org/2000/svg"
   xmlns:svg="http://www.w3.org/2000/svg">
  <sodipodi:namedview
     id="namedview1"
     pagecolor="#ffffff"
     bordercolor="#000000"
     borderopacity="0.25"
     inkscape:showpageshadow="2"
     inkscape:pageopacity="0.0"
     inkscape:pagecheckerboard="true"
     inkscape:deskcolor="#d1d1d1"
     inkscape:document-units="px"
     inkscape:zoom="2.0485264"
     inkscape:cx="239.68449"
     inkscape:cy="-3.6611684"
     inkscape:window-width="1920"
     inkscape:window-height="1009"
     inkscape:window-x="1912"
     inkscape:window-y="-8"
     inkscape:window-maximized="1"
     inkscape:current-layer="layer1"
     showguides="false" />
  <defs
     id="defs1" />
  <g
     inkscape:label="Layer 1"
     inkscape:groupmode="layer"
     id="layer1">
    <rect
       style="fill:#080c80;fill-opacity:1;stroke-width:0.254508"
       id="rect1"
       width="44.979168"
       height="15.345834"
       x="85.460419"
       y="2.8044218e-07" />
    <path
       id="path4"
       style="fill:#ffffff;fill-opacity:1;stroke-width:0.111436"
       d="m 95.761088,8.6116001 c 0,-2.4961777 -1.4041,-3.5213937 -3.677405,-3.5213937 -0.713194,0 -1.4041,0 -1.760697,0.022286 -0.356597,0.022289 -0.57947,0.066862 -0.57947,0.4234588 v 6.8199148 a 19.802268,19.802268 0 0 0 2.028145,0.111436 c 2.317879,0 3.989427,-1.359525 3.989427,-3.855703 z m -1.49325,0.1114365 c 0,1.6046864 -0.980641,2.5630404 -2.362453,2.5630404 a 4.7627964,4.7627964 0 0 1 -0.757769,-0.05572 V 6.2825772 c 0,0 0.401172,-0.033431 0.846918,-0.033431 1.604685,0 2.273304,0.8692047 2.273304,2.4738904 z m 2.251018,1.0029281 c 0,1.8275593 0.891492,2.7413393 2.719051,2.7413393 a 4.8441452,4.8441452 0 0 0 1.693833,-0.289735 v -1.047503 a 4.8575175,4.8575175 0 0 1 -1.515535,0.267447 c -0.980641,0 -1.515536,-0.512608 -1.515536,-1.4932488 h 2.741341 c 0.44574,0 0.62404,-0.1114365 0.62404,-0.4234595 v -0.200585 c 0,-1.3372386 -0.71319,-2.3847421 -2.228729,-2.3847421 -1.604685,0 -2.518465,1.2258017 -2.518465,2.8304871 z m 2.473891,-1.8052711 c 0.57947,0 0.891492,0.4011714 0.891492,1.0697907 h -1.961283 c 0.08915,-0.6686193 0.490321,-1.0697907 1.069791,-1.0697907 z m 4.680333,-2.8082001 h -0.75777 c -0.44575,0 -0.62405,0.1114367 -0.62405,0.4234588 v 5.1706547 c 0,1.248089 0.37889,1.760697 1.4041,1.760697 a 3.1636826,3.1636826 0 0 0 0.91378,-0.144868 v -1.014072 a 2.081634,2.081634 0 0 1 -0.46803,0.06686 c -0.27859,0 -0.46803,-0.133724 -0.46803,-0.713194 z m 3.16479,0 h -0.73548 c -0.44574,0 -0.62404,0.1114367 -0.62404,0.4234588 v 5.1706547 c 0,1.248089 0.40117,1.760697 1.56011,1.760697 a 4.0774617,4.0774617 0 0 0 1.09208,-0.144868 v -1.058647 a 2.9185221,2.9185221 0 0 1 -0.64634,0.08915 c -0.40117,0 -0.64633,-0.200586 -0.64633,-0.869205 V 8.0767049 h 0.66862 c 0.44575,0 0.62405,-0.1114366 0.62405,-0.423459 V 7.0069143 h -1.29267 z m 1.96129,4.8363457 c 0,1.8275578 1.15893,2.5184648 2.58532,2.5184648 0.89149,0 1.80527,-0.178299 2.34017,-0.401172 V 7.1852128 a 6.9335795,6.9335795 0 0 0 -1.91671,-0.2897352 c -1.87213,0 -3.00878,1.2258017 -3.00878,3.0533616 z m 1.42638,-0.1337245 c 0,-1.2926638 0.64633,-1.8498464 1.44868,-1.8498464 a 2.9307802,2.9307802 0 0 1 0.6909,0.078006 v 3.2205147 c 0,0 -0.28973,0.133724 -0.8692,0.133724 -0.89149,0 -1.27038,-0.601757 -1.27038,-1.5823983 z m 4.90321,2.5407523 h 1.38181 V 9.1019207 c 0,-0.7577683 0.20059,-1.0252158 0.73548,-1.0252158 h 0.0669 c 0.40118,0 0.60176,-0.066862 0.60176,-0.423459 V 7.0069143 h -0.84691 c -1.51554,0 -1.939,0.9360668 -1.939,2.0950064 z m 3.09794,-2.6299023 c 0,1.8275593 0.89149,2.7413393 2.71905,2.7413393 a 4.8441452,4.8441452 0 0 0 1.69383,-0.289735 v -1.047503 a 4.8575175,4.8575175 0 0 1 -1.51553,0.267447 c -0.98064,0 -1.51554,-0.512608 -1.51554,-1.4932488 h 2.74134 c 0.44574,0 0.62404,-0.1114365 0.62404,-0.4234595 v -0.200585 c 0,-1.3372386 -0.71319,-2.3847421 -2.22873,-2.3847421 -1.60469,0 -2.51846,1.2258017 -2.51846,2.8304871 z m 2.47389,-1.8052711 c 0.57947,0 0.89149,0.4011714 0.89149,1.0697907 h -1.96129 c 0.0892,-0.6686193 0.49033,-1.0697907 1.0698,-1.0697907 z m 3.12022,0.6909065 c 0,1.7829849 2.17301,1.2926641 2.17301,2.2287299 0,0.356597 -0.34545,0.557183 -0.88035,0.557183 a 4.465261,4.465261 0 0 1 -1.14779,-0.156011 l -0.0223,1.114365 a 5.426958,5.426958 0 0 0 1.10322,0.111437 c 1.42639,0 2.3736,-0.690907 2.3736,-1.760697 0,-1.7384101 -2.1953,-1.3818133 -2.1953,-2.2287307 0,-0.356597 0.31202,-0.5348952 0.80234,-0.5348952 0.1783,0 0.3566,0.011142 0.49032,0.011142 0.31202,0 0.55718,-0.055718 0.55718,-0.5906135 V 6.9846258 a 6.2850193,6.2850193 0 0 0 -0.98064,-0.089149 c -1.51554,0 -2.27331,0.7800557 -2.27331,1.7161225 z" />
    <rect
       style="fill:#080c80;fill-opacity:0.819945;stroke-width:0.0872956"
       id="rect1-7"
       width="5.291667"
       height="15.345834"
       x="80.168755"
       y="1.4022109e-07" />
    <rect
       style="fill:#080c80;fill-opacity:0.67036;stroke-width:0.0872956"
       id="rect1-7-5"
       width="5.291667"
       height="15.345834"
       x="74.87709"
       y="1.4022109e-07" />
    <rect
       style="fill:#080c80;fill-opacity:0.537396;stroke-width:0.0872956"
       id="rect1-7-5-6"
       width="5.291667"
       height="15.345834"
       x="69.585419"
       y="1.4022109e-07" />
    <rect
       style="fill:#080c80;fill-opacity:0.393352;stroke-width:0.0872956"
       id="rect1-7-5-6-6"
       width="5.291667"
       height="15.345834"
       x="64.293755"
       y="1.4022109e-07" />
    <rect
       style="fill:#080c80;fill-opacity:0.199446;stroke-width:0.0872956"
       id="rect1-7-5-6-6-5"
       width="5.291667"
       height="15.345834"
       x="59.002087"
       y="1.4022109e-07" />
  </g>
</svg>
